# xmcd CD database file
#
# Track frame offsets:
#	150
#	21948
#	38043
#
# Disc length: 641 seconds
#
# Revision: 0
# Processed by: cddbd v1.5.1PL0 Copyright (c) Steve Scherf et al.
# Submitted via: CDex 1.60beta1
#
DISCID=1b027f03
DTITLE=Cattle Baron's Ball - Pancho and Lefty
DYEAR=1900
DGENRE=Country
TTITLE0=Pancho and Lefty
TTITLE1=Whiskey River
TTITLE2=Momma Tried
EXTD=
EXTT0=
EXTT1=
EXTT2=
PLAYORDER=
